<svg style="object-fit:cover" id="my-svg" version="1" baseProfile="full" width="100%" height="100%" viewBox="0 0 1440 820" xmlns="http://www.w3.org/2000/svg"><rect width="1440" height="820" fill="#f2ecdb"/><defs><linearGradient id="linear-gradient" x1="0" x2="1" y1="0" y2="1"><stop offset="0%" stop-color="#5f8d4e80"/><stop offset="100%" stop-color="#a4be7b80"/></linearGradient></defs><path transform="scale(1, 1)" d="M 0,820 V 0,246 C 103.39285714285714,230.64285714285714 206.78571428571428,215.28571428571428 340,238 C 473.2142857142857,260.7142857142857 636.25,321.5 765,303 C 893.75,284.5 988.2142857142858,186.71428571428572 1095,164 C 1201.7857142857142,141.28571428571428 1320.892857142857,193.64285714285714 1440,246 C 1440,246 1440,820 1440,820 Z" stroke="none" stroke-width="0" fill="url(#linear-gradient)" class="transition-all duration-300 ease-in-out delay-150" style="transform-origin: center center;"/><defs><linearGradient id="linear-gradient" x1="0" x2="1" y1="0" y2="1"><stop offset="0%" stop-color="#5f8d4e90"/><stop offset="100%" stop-color="#a4be7b90"/></linearGradient></defs><path transform="scale(1, 1)" d="M 0,820 V 0,369 C 149.60714285714283,336.1071428571429 299.21428571428567,303.2142857142857 410,320 C 520.7857142857143,336.7857142857143 592.75,403.25 703,420 C 813.25,436.75 961.7857142857142,403.7857142857143 1091,387 C 1220.2142857142858,370.2142857142857 1330.107142857143,369.6071428571429 1440,369 C 1440,369 1440,820 1440,820 Z" stroke="none" stroke-width="0" fill="url(#linear-gradient)" class="transition-all duration-300 ease-in-out delay-150" style="transform-origin: center center;"/><defs><linearGradient id="linear-gradient" x1="0" x2="1" y1="0" y2="1"><stop offset="0%" stop-color="#5f8d4eff"/><stop offset="100%" stop-color="#a4be7bff"/></linearGradient></defs><path transform="scale(1, 1)" d="M 0,820 V 0,553 C 127.96428571428572,526.1071428571429 255.92857142857144,499.21428571428567 376,510 C 496.07142857142856,520.7857142857143 608.25,569.25 711,603 C 813.75,636.75 907.0714285714287,655.7857142857143 1027,645 C 1146.9285714285713,634.2142857142857 1293.4642857142858,593.6071428571429 1440,553 C 1440,553 1440,820 1440,820 Z" stroke="none" stroke-width="0" fill="url(#linear-gradient)" class="transition-all duration-300 ease-in-out delay-150" style="transform-origin: center center;"/></svg>